<svg xmlns="http://www.w3.org/2000/svg" width="224" height="88" viewBox="1122 972 224 88"><g data-name="Logo"><g data-name="Rectangle 100"><path d="M1122 972h224v88h-224v-88z" fill="#fff" fill-rule="evenodd"/><path d="M0 0h224v88h0H0h0V0h0z" stroke-linejoin="round" stroke-linecap="round" stroke="rgba(255,255,255,0.5 )" fill="transparent" transform="matrix(.99554 0 0 .98864 1122.5 972.5)"/></g><g data-name="9"><g data-name="Page-1"><g data-name="2"><g data-name="9"><path d="m1203.527 1017.274 2.83-1.118c.594 1.886 2.306 3.004 4.857 3.004 2.306 0 3.808-.978 3.808-2.69 0-4.437-10.586-2.446-10.586-8.77 0-3.18 2.62-5.136 6.673-5.136 3.354 0 5.765 1.363 6.569 3.809l-2.83 1.118c-.594-1.642-1.922-2.411-3.774-2.411-2.131 0-3.354.943-3.354 2.446 0 1.896 2.255 2.462 4.69 3.176l.319.094c2.766.826 5.647 1.923 5.647 5.43 0 3.493-2.9 5.52-7.267 5.52-3.808 0-6.603-1.538-7.582-4.472Zm31.818 10.341v-9.293c-1.467 2.131-3.808 3.424-6.708 3.424-5.206 0-9.05-4.088-9.05-9.574 0-5.485 3.74-9.608 8.98-9.608 3.075 0 5.52 1.433 6.988 3.809v-3.424h2.76v24.666h-2.97Zm.105-15.443c0-4.087-2.655-6.987-6.464-6.987-3.703 0-6.463 2.97-6.463 6.987 0 3.984 2.76 6.953 6.463 6.953 3.844 0 6.464-2.865 6.464-6.953Zm6.417 2.132v-11.355h2.97v11.005c0 3.11 1.991 5.171 5.136 5.136 3.11 0 5.206-2.236 5.24-4.577v-11.564h2.97v18.412h-2.83v-2.62c-1.222 1.712-3.424 3.005-6.149 3.005-4.717 0-7.337-3.075-7.337-7.442Zm18.96-2.166c0-5.451 3.844-9.4 9.05-9.4 3.11 0 5.52 1.398 6.917 3.774v-3.563h2.76v18.412h-2.76v-3.528c-1.397 2.445-3.808 3.913-6.918 3.913-5.24 0-9.049-4.088-9.049-9.608Zm15.863 0c0-4.088-2.62-6.953-6.464-6.953-3.704 0-6.464 3.004-6.464 6.953 0 4.017 2.76 6.987 6.464 6.987 3.808 0 6.464-2.865 6.464-6.987Zm6.661 9.223v-18.412h2.795v2.69c1.188-1.712 3.285-3.075 5.87-3.075v2.76c-3.354.035-5.695 2.306-5.695 4.927v11.11h-2.97Zm8.409-9.189c0-5.345 4.088-9.643 9.294-9.643 5.555 0 9.084 4.368 9.084 9.224 0 .524-.035 1.153-.07 1.503h-15.303c.524 3.424 3.214 5.73 6.603 5.73 3.005 0 4.682-1.153 5.59-3.285l2.586 1.573c-1.363 2.62-3.913 4.507-8.28 4.507-5.66 0-9.504-4.123-9.504-9.609Zm9.399-7.057c-3.11 0-5.8 2.061-6.36 5.555h12.3c-.455-3.459-2.866-5.555-5.94-5.555Z" fill="#a4a4a4" fill-rule="evenodd" data-name="square"/><path d="M1245.738 1032.548a.92.92 0 0 1-.35-.183c-.2-.174-.365-.516-.496-1.023a7.852 7.852 0 0 0-.118-.41c-.112-.34-.263-.577-.453-.708s-.477-.197-.862-.197c-.082 0-.213.005-.393.013l-.028.004v1.994l.143.119.479.04v.344h-1.994v-.344l.475-.04.143-.12v-4.618l-.143-.118-.475-.05v-.335h2.137c.685 0 1.193.123 1.523.37.33.247.496.626.496 1.136 0 .363-.113.662-.34.895-.227.233-.565.4-1.015.497.21.058.386.132.528.224.142.091.254.205.336.342.092.15.171.37.237.66.066.291.117.485.156.58.084.23.2.386.348.469.147.083.394.125.74.125h.074v.32a4.52 4.52 0 0 1-.348.054 2.649 2.649 0 0 1-.303.019c-.193 0-.36-.02-.497-.06Zm-1.106-3.176c.237-.183.355-.476.355-.88 0-.418-.122-.72-.365-.909-.243-.188-.636-.282-1.179-.282h-.405v2.337a16.749 16.749 0 0 0 .462.009c.519 0 .896-.092 1.132-.275Zm2.423 2.672c-.345-.38-.518-.877-.518-1.488 0-.628.181-1.14.543-1.538.361-.397.826-.596 1.394-.596.464 0 .832.148 1.103.445.272.296.408.7.408 1.21 0 .068 0 .12-.002.155a.811.811 0 0 1-.01.102h-2.715v.095c0 .526.127.943.38 1.25.255.308.597.461 1.028.461.2 0 .406-.04.62-.119.215-.079.448-.202.699-.368v.463a3.103 3.103 0 0 1-.774.372 2.66 2.66 0 0 1-.807.127c-.554 0-1.003-.19-1.349-.571Zm2.18-2.193c0-.338-.074-.597-.223-.778-.148-.18-.365-.27-.649-.27a.948.948 0 0 0-.722.334 1.356 1.356 0 0 0-.342.845h1.937v-.13Zm1.475 2.453c-.195-.197-.292-.456-.292-.778 0-.358.146-.639.44-.843.293-.205.963-.433 2.008-.684v-.266c0-.353-.057-.597-.172-.733-.114-.137-.314-.205-.598-.205-.106 0-.211.01-.315.033a2.059 2.059 0 0 0-.323.098v.704h-.578c-.1 0-.17-.018-.206-.055-.037-.037-.056-.104-.056-.203 0-.273.158-.5.473-.68.315-.18.723-.27 1.222-.27.44 0 .76.096.958.287.2.191.3.498.3.921v2.432l.143.135.442.041v.303h-1.18l-.11-.487a3.81 3.81 0 0 1-.743.412 1.732 1.732 0 0 1-.633.133c-.324 0-.584-.099-.78-.295Zm1.569-.25c.17-.063.366-.157.587-.282v-1.478c-.701.193-1.162.37-1.382.532a.75.75 0 0 0-.33.634c0 .21.061.378.183.502a.653.653 0 0 0 .49.186c.13 0 .281-.031.452-.094Zm1.99.487v-.303l.496-.04.143-.136v-5.13h-.647v-.262l1.024-.299h.32v5.691l.15.135.48.041v.303h-1.966Zm4.183 0v-.344l.475-.04.143-.12v-4.618l-.143-.118-.475-.05v-.335h4.016v1.224h-.47l-.12-.713-.114-.126h-1.94v2.12h1.375l.119-.118.082-.61h.397v1.846h-.397l-.082-.606-.119-.127h-1.376v2.35h2.248l.119-.135.143-.847h.434v1.367h-4.315Zm5.135.031a2.465 2.465 0 0 1-.51-.133v-1.09h.402l.102.713c.117.069.235.12.354.152.119.033.238.049.358.049.238 0 .428-.062.572-.186a.616.616 0 0 0 .215-.49c0-.169-.05-.309-.148-.42-.098-.11-.333-.25-.704-.419-.42-.188-.706-.366-.858-.532a.885.885 0 0 1-.227-.619c0-.373.13-.663.389-.868.26-.204.625-.307 1.097-.307.188 0 .364.016.526.047.163.032.315.078.457.138v.95h-.414l-.065-.594a1.714 1.714 0 0 0-.32-.135 1.058 1.058 0 0 0-.303-.045c-.218 0-.389.053-.511.16a.56.56 0 0 0-.185.446c0 .155.05.288.148.397.098.109.286.23.565.364.043.022.11.053.2.094.317.145.546.276.688.393a.795.795 0 0 1 .238.31c.054.124.082.26.082.411 0 .393-.139.7-.416.923-.277.223-.661.334-1.153.334-.202 0-.395-.014-.579-.043Zm3.144-.188c-.13-.122-.195-.344-.195-.666v-2.706h-.528v-.262l.553-.242.36-.782h.311v.893h1.278v.393h-1.278v2.211c0 .363.05.607.152.73.1.125.282.187.544.187a2.506 2.506 0 0 0 .582-.07v.312c-.192.06-.38.105-.565.137a3.217 3.217 0 0 1-.537.047c-.322 0-.548-.06-.677-.182Zm2.234-.08c-.195-.197-.293-.456-.293-.778 0-.358.147-.639.44-.843.294-.205.963-.433 2.009-.684v-.266c0-.353-.058-.597-.172-.733-.115-.137-.314-.205-.598-.205-.107 0-.212.01-.315.033a2.059 2.059 0 0 0-.324.098v.704h-.577c-.101 0-.17-.018-.207-.055-.037-.037-.055-.104-.055-.203 0-.273.157-.5.473-.68.315-.18.722-.27 1.222-.27.44 0 .759.096.958.287.2.191.299.498.299.921v2.432l.143.135.442.041v.303h-1.179l-.11-.487a3.81 3.81 0 0 1-.743.412 1.732 1.732 0 0 1-.633.133c-.325 0-.585-.099-.78-.295Zm1.568-.25c.17-.063.367-.157.588-.282v-1.478c-.702.193-1.162.37-1.382.532a.75.75 0 0 0-.33.634c0 .21.06.378.182.502a.653.653 0 0 0 .49.186c.13 0 .282-.031.452-.094Zm2.69.33c-.13-.122-.195-.344-.195-.666v-2.706h-.529v-.262l.553-.242.36-.782h.312v.893H1275v.393h-1.277v2.211c0 .363.05.607.151.73.101.125.283.187.545.187a2.506 2.506 0 0 0 .581-.07v.312c-.191.06-.38.105-.565.137a3.217 3.217 0 0 1-.536.047c-.322 0-.548-.06-.678-.182Zm2.418-.34c-.346-.38-.518-.877-.518-1.488 0-.628.18-1.14.542-1.538.362-.397.827-.596 1.394-.596.465 0 .832.148 1.104.445.272.296.407.7.407 1.21 0 .068 0 .12-.002.155a.812.812 0 0 1-.01.102h-2.715v.095c0 .526.127.943.381 1.25.254.308.597.461 1.028.461.2 0 .406-.04.62-.119.214-.079.447-.202.698-.368v.463a3.103 3.103 0 0 1-.774.372 2.66 2.66 0 0 1-.806.127c-.554 0-1.004-.19-1.35-.571Zm2.18-2.193c0-.338-.074-.597-.223-.778-.149-.18-.365-.27-.65-.27a.948.948 0 0 0-.722.334 1.356 1.356 0 0 0-.342.845h1.937v-.13Zm4.07 2.723a3.055 3.055 0 0 1-.686-.2v-1.474h.495l.099.962.11.143c.123.063.264.11.422.143.158.033.33.05.516.05.39 0 .7-.091.927-.273a.89.89 0 0 0 .342-.735c0-.428-.401-.813-1.204-1.154a10.772 10.772 0 0 0-.2-.086c-.574-.249-.953-.48-1.139-.694-.185-.215-.278-.492-.278-.834 0-.48.177-.868.53-1.164.354-.297.823-.445 1.407-.445.234 0 .47.02.706.06.236.04.477.099.723.178v1.298h-.438l-.127-.799-.123-.139a1.287 1.287 0 0 0-.348-.133 1.839 1.839 0 0 0-.41-.043c-.35 0-.626.09-.83.272-.206.182-.308.428-.308.74 0 .226.072.414.215.562.143.15.463.329.96.539l.209.082c.489.19.84.393 1.056.606.123.12.215.258.277.413.061.156.092.325.092.508 0 .505-.198.912-.594 1.222-.396.31-.921.465-1.576.465-.292 0-.567-.023-.825-.07Zm4.052-.544c-.364-.39-.546-.894-.546-1.511 0-.617.18-1.12.542-1.511.362-.39.83-.586 1.402-.586.57 0 1.039.196 1.405.588.366.392.548.895.548 1.509 0 .614-.183 1.117-.55 1.509-.367.391-.835.587-1.403.587-.567 0-1.033-.195-1.398-.585Zm2.246-.246c.213-.314.32-.736.32-1.265 0-.524-.108-.945-.322-1.261-.214-.317-.496-.475-.846-.475-.349 0-.63.157-.841.473-.212.315-.317.736-.317 1.263 0 .527.106.948.319 1.263.213.315.493.473.84.473.351 0 .634-.157.847-.471Zm1.37.757v-.303l.496-.04.143-.136v-5.13h-.647v-.262l1.024-.299h.32v5.691l.15.135.48.041v.303h-1.966Zm2.958-.247c-.193-.22-.29-.537-.29-.952v-2.346h-.597v-.262l.975-.312h.319v2.776c0 .306.065.53.197.674.13.143.335.215.614.215.155 0 .313-.02.473-.062.16-.04.326-.103.501-.188v-2.841h-.598v-.262l.975-.312h.32v3.64l.15.135.394.041v.303h-1.24v-.47a3.57 3.57 0 0 1-.728.417c-.222.09-.433.135-.632.135-.363 0-.641-.11-.833-.33Zm4.318.09c-.13-.122-.194-.344-.194-.666v-2.706h-.529v-.262l.553-.242.36-.782h.312v.893h1.277v.393h-1.277v2.211c0 .363.05.607.151.73.101.125.283.187.545.187a2.506 2.506 0 0 0 .581-.07v.312c-.19.06-.38.105-.565.137a3.217 3.217 0 0 1-.536.047c-.322 0-.548-.06-.678-.182Zm2.538-4.952a.459.459 0 0 1-.142-.34.47.47 0 0 1 .142-.346.466.466 0 0 1 .341-.142c.137 0 .252.048.346.144.095.095.142.21.142.344a.459.459 0 0 1-.142.34.474.474 0 0 1-.346.139.47.47 0 0 1-.341-.14Zm-.654 5.11v-.304l.443-.04.143-.136v-3.034h-.586v-.262l.963-.299h.327v3.595l.144.135.45.041v.303h-1.884Zm2.63-.512c-.364-.39-.547-.894-.547-1.511 0-.617.181-1.12.543-1.511.362-.39.83-.586 1.402-.586.57 0 1.039.196 1.405.588.365.392.548.895.548 1.509 0 .614-.183 1.117-.55 1.509-.367.391-.835.587-1.403.587-.567 0-1.034-.195-1.398-.585Zm2.246-.246c.213-.314.32-.736.32-1.265 0-.524-.108-.945-.322-1.261-.214-.317-.496-.475-.846-.475s-.63.157-.841.473c-.212.315-.317.736-.317 1.263 0 .527.106.948.319 1.263.213.315.493.473.84.473.351 0 .634-.157.847-.471Zm1.387.757v-.303l.454-.04.144-.136v-3.034h-.598v-.262l.974-.299h.32v.459a6.22 6.22 0 0 1 .81-.391c.205-.075.385-.113.54-.113.367 0 .646.11.84.328.194.218.29.535.29.95v2.362l.144.135.45.041v.303h-1.834v-.303l.401-.04.144-.136v-2.219c0-.314-.065-.536-.195-.667s-.347-.197-.653-.197c-.134 0-.278.023-.434.068a2.831 2.831 0 0 0-.503.207v2.808l.143.135.401.041v.303h-1.838Z" fill="#a4a4a4" fill-rule="evenodd" data-name="RealEstateSolution"/><path d="M1158 999h34.939v34.939H1158V999Zm26.004 8.935-17.07-.002v17.072l-.006.005v.002h17.084l-.002-17.083Z" fill="#a4a4a4" fill-rule="evenodd" data-name="Icon"/></g></g></g></g></g></svg>