<svg xmlns="http://www.w3.org/2000/svg" width="224" height="88" viewBox="300 972 224 88"><g data-name="Logo"><g data-name="Rectangle 97"><path d="M300 972h224v88H300v-88z" fill="#fff" fill-rule="evenodd"/><path d="M0 0h224v88h0H0h0V0h0z" stroke-linejoin="round" stroke-linecap="round" stroke="rgba(255,255,255,0.5 )" fill="transparent" transform="matrix(.99554 0 0 .98864 300.5 972.5)"/></g><g data-name="8"><g data-name="Page-1"><g data-name="3"><g data-name="8"><path d="M389.363 1021.225v-23.65h5.614c1.738 0 3.12.55 4.15 1.647.959 1.046 1.439 2.377 1.439 3.993v3.436c0 1.556-.545 2.887-1.634 3.994-1.09 1.106-2.407 1.66-3.955 1.66h-2.061v8.92h-3.553Zm7.15-13.05c.394-.402.59-.884.59-1.446v-3.449c0-.622-.183-1.121-.55-1.497-.368-.376-.862-.564-1.485-.564h-2.152v7.559h2.152c.57 0 1.053-.201 1.446-.603Zm6.008 13.05 4.006-23.65h4.914l3.955 23.65h-3.735l-.842-5.433h-3.721l-.87 5.433h-3.707Zm6.444-18.23-1.323 9.322h2.645l-1.322-9.322Zm10.836 18.23v-23.65h5.614c1.738 0 3.12.55 4.15 1.647.959 1.046 1.438 2.377 1.438 3.993v3.436c0 1.556-.544 2.887-1.633 3.994-1.09 1.106-2.407 1.66-3.955 1.66h-2.061v8.92H419.8Zm7.15-13.05c.394-.402.59-.884.59-1.446v-3.449c0-.622-.183-1.121-.55-1.497-.368-.376-.863-.564-1.485-.564h-2.152v7.559h2.152c.57 0 1.052-.201 1.446-.603Zm8.302 13.05v-23.65h10.14v3.566h-6.587v6.47h4.81v3.578h-4.81v6.47h6.587v3.566h-10.14Zm14 0v-23.65h5.615c1.988 0 3.444.55 4.37 1.647.82.96 1.23 2.29 1.23 3.993v3.436c0 1.677-.634 3.09-1.905 4.24l2.645 10.334h-3.85l-2.18-8.934a3.907 3.907 0 0 1-.323.013h-2.049v8.92h-3.552Zm7.151-13.05c.393-.402.59-.884.59-1.446v-3.449c0-1.374-.678-2.061-2.035-2.061h-2.153v7.559h2.153c.57 0 1.052-.201 1.445-.603Zm9.054 13.05v-3.54l6.574-16.544h-6.574v-3.566h10.398v3.566l-6.56 16.544h6.56v3.54h-10.398Z" fill="#a4a4a4" fill-rule="evenodd" data-name="paperz"/><path d="M388.793 1033.337v-5.719h.629v5.199h2.574v.52h-3.203Zm4.562-.134a1.868 1.868 0 0 1-.696-.747 2.287 2.287 0 0 1-.252-1.081c0-.403.083-.763.247-1.082.165-.319.395-.568.688-.746a1.887 1.887 0 0 1 1.002-.269c.352 0 .67.087.956.26.285.174.509.41.67.709.163.299.244.633.244 1.002 0 .106-.003.187-.008.243h-3.229a1.7 1.7 0 0 0 .394 1.031c.24.286.568.428.981.428.336 0 .614-.063.835-.189.22-.125.398-.3.532-.524l.453.302c-.184.29-.428.519-.73.684-.301.165-.66.247-1.073.247-.38 0-.718-.09-1.014-.268Zm1.878-3.099c-.218-.204-.514-.306-.889-.306-.363 0-.661.116-.893.348a1.592 1.592 0 0 0-.44.876h2.633c-.056-.408-.193-.714-.411-.918Zm2.524 3.099a1.869 1.869 0 0 1-.696-.747 2.305 2.305 0 0 1-.252-1.09c0-.402.083-.761.248-1.077.165-.316.394-.564.687-.742a1.887 1.887 0 0 1 1.002-.269 1.65 1.65 0 0 1 1.384.721v-.587h.57v3.925h-.57v-.579a1.75 1.75 0 0 1-.595.524 1.608 1.608 0 0 1-.772.189c-.374 0-.71-.09-1.006-.268Zm1.706-.453c.21-.134.373-.322.49-.562a1.83 1.83 0 0 0 .177-.813 1.83 1.83 0 0 0-.176-.814 1.301 1.301 0 0 0-1.207-.763c-.263 0-.498.067-.705.201-.207.135-.369.32-.486.558a1.803 1.803 0 0 0-.176.81c0 .307.058.58.176.821.117.24.28.428.486.562.207.134.442.201.704.201.269 0 .508-.067.717-.201Zm2.998.453a1.869 1.869 0 0 1-.696-.747 2.305 2.305 0 0 1-.251-1.09c0-.402.082-.761.247-1.077.165-.316.394-.564.688-.742a1.887 1.887 0 0 1 1.002-.269 1.65 1.65 0 0 1 1.383.721v-2.75h.57v6.088h-.57v-.579a1.75 1.75 0 0 1-.595.524 1.608 1.608 0 0 1-.772.189c-.374 0-.71-.09-1.006-.268Zm1.707-.453c.21-.134.373-.322.49-.562a1.83 1.83 0 0 0 .176-.813 1.83 1.83 0 0 0-.176-.814 1.301 1.301 0 0 0-1.207-.763c-.263 0-.498.067-.705.201-.207.135-.369.32-.486.558a1.803 1.803 0 0 0-.176.81c0 .307.058.58.176.821.117.24.28.428.486.562.207.134.442.201.705.201.268 0 .507-.067.717-.201Zm2.565-4.235a.452.452 0 0 1-.13-.327c0-.123.044-.228.13-.314a.438.438 0 0 1 .323-.13c.123 0 .23.043.319.13.09.086.134.194.134.323 0 .123-.045.229-.134.318a.435.435 0 0 1-.319.134.431.431 0 0 1-.323-.134Zm.038 4.822v-3.925h.57v3.925h-.57Zm1.937 0v-3.925h.57v.655c.135-.252.312-.446.533-.583.22-.137.476-.206.767-.206.274 0 .527.056.759.168.232.112.416.277.553.495.137.218.206.475.206.771v2.625h-.57v-2.373c0-.777-.347-1.166-1.04-1.166-.403 0-.704.143-.906.428-.201.285-.302.668-.302 1.149v1.962h-.57Zm4.797 1.677v-.52h1.626c.341 0 .62-.123.835-.369.215-.246.323-.559.323-.94v-.427a1.75 1.75 0 0 1-.596.524 1.608 1.608 0 0 1-.771.189c-.375 0-.71-.09-1.007-.268a1.869 1.869 0 0 1-.695-.747 2.305 2.305 0 0 1-.252-1.09c0-.402.082-.761.247-1.077.165-.316.394-.564.688-.742a1.887 1.887 0 0 1 1.002-.269 1.65 1.65 0 0 1 1.384.721v-.587h.57v3.774c0 .352-.073.666-.218.943-.146.277-.35.494-.612.65a1.72 1.72 0 0 1-.898.235h-1.626Zm2.117-2.264c.21-.134.373-.322.49-.562a1.83 1.83 0 0 0 .177-.813 1.83 1.83 0 0 0-.177-.814 1.301 1.301 0 0 0-1.207-.763c-.263 0-.498.067-.704.201-.207.135-.37.32-.487.558a1.803 1.803 0 0 0-.176.81c0 .307.059.58.176.821.118.24.28.428.487.562.206.134.441.201.704.201.268 0 .507-.067.717-.201Zm4.306.587v-5.719h1.912c.514 0 .925.157 1.232.47.308.313.462.746.462 1.3 0 .547-.161.978-.483 1.29-.321.314-.747.47-1.278.47h-1.216v2.189h-.63Zm2.683-3.023c.196-.21.294-.519.294-.927 0-.408-.098-.718-.294-.93-.196-.213-.48-.32-.855-.32h-1.2v2.491h1.2c.374 0 .66-.104.855-.314Zm2.365 2.889a1.869 1.869 0 0 1-.696-.747 2.305 2.305 0 0 1-.252-1.09c0-.402.083-.761.248-1.077.165-.316.394-.564.687-.742a1.887 1.887 0 0 1 1.002-.269 1.65 1.65 0 0 1 1.384.721v-.587h.57v3.925h-.57v-.579a1.75 1.75 0 0 1-.596.524 1.608 1.608 0 0 1-.771.189c-.375 0-.71-.09-1.006-.268Zm1.706-.453c.21-.134.373-.322.49-.562a1.83 1.83 0 0 0 .177-.813 1.83 1.83 0 0 0-.176-.814 1.301 1.301 0 0 0-1.207-.763c-.263 0-.498.067-.705.201-.207.135-.369.32-.486.558a1.803 1.803 0 0 0-.177.81c0 .307.06.58.177.821.117.24.28.428.486.562.207.134.442.201.704.201.269 0 .508-.067.717-.201Zm2.302 2.264v-5.602h.57v.579a1.75 1.75 0 0 1 .596-.524c.234-.126.491-.189.771-.189.375 0 .71.09 1.006.269.297.179.529.427.696.746.168.319.252.682.252 1.09 0 .403-.083.762-.248 1.078a1.855 1.855 0 0 1-.687.742 1.887 1.887 0 0 1-1.002.268 1.65 1.65 0 0 1-1.384-.721v2.264h-.57Zm2.658-2.264c.207-.134.37-.32.486-.558.118-.237.177-.507.177-.809 0-.307-.06-.581-.177-.822a1.367 1.367 0 0 0-.486-.562 1.266 1.266 0 0 0-.704-.2 1.301 1.301 0 0 0-1.208.762 1.83 1.83 0 0 0-.176.814c0 .301.059.573.176.813.118.24.281.428.49.562.21.134.45.201.718.201.263 0 .497-.067.704-.201Zm2.742.453a1.869 1.869 0 0 1-.696-.747 2.287 2.287 0 0 1-.251-1.081c0-.403.082-.763.247-1.082.165-.319.394-.568.688-.746a1.887 1.887 0 0 1 1.002-.269c.352 0 .67.087.956.26.285.174.508.41.67.709.163.299.244.633.244 1.002 0 .106-.003.187-.009.243h-3.228a1.7 1.7 0 0 0 .394 1.031c.24.286.567.428.981.428.335 0 .614-.063.834-.189.221-.125.399-.3.533-.524l.453.302c-.185.29-.428.519-.73.684-.302.165-.66.247-1.073.247-.38 0-.719-.09-1.015-.268Zm1.878-3.099c-.218-.204-.514-.306-.888-.306-.364 0-.661.116-.893.348a1.592 1.592 0 0 0-.44.876h2.632c-.056-.408-.192-.714-.41-.918Zm1.82 3.233v-3.925h.57v.789c.151-.291.343-.517.575-.68.232-.162.493-.243.784-.243.134 0 .262.02.385.059v.52a.886.886 0 0 0-.385-.084c-.24 0-.464.067-.671.201a1.428 1.428 0 0 0-.499.583 2.012 2.012 0 0 0-.189.901v1.879h-.57Zm5.732-.222c-.35-.238-.618-.579-.805-1.023-.188-.445-.281-.977-.281-1.598 0-.626.09-1.164.272-1.614.182-.45.442-.794.78-1.031.338-.238.74-.357 1.203-.357.475 0 .882.105 1.22.315.339.21.603.504.793.884l-.503.294c-.18-.33-.389-.566-.63-.709-.24-.142-.533-.214-.88-.214-.497 0-.887.214-1.17.642-.282.428-.423 1.022-.423 1.782 0 .497.064.928.193 1.291.128.364.313.642.553.834.24.193.52.29.839.29.397 0 .706-.088.926-.264.221-.176.427-.452.617-.826l.528.318c-.201.436-.468.769-.8.998-.333.23-.729.344-1.187.344-.481 0-.896-.119-1.245-.356Zm4.758.088a1.862 1.862 0 0 1-.696-.75 2.312 2.312 0 0 1-.251-1.087c0-.402.082-.761.247-1.077.165-.316.394-.564.688-.742a1.887 1.887 0 0 1 1.002-.269c.374 0 .71.09 1.006.269.296.178.528.427.696.746.168.319.251.68.251 1.082s-.082.763-.247 1.081a1.849 1.849 0 0 1-.688.747 1.887 1.887 0 0 1-1.002.268c-.374 0-.71-.09-1.006-.268Zm1.707-.453c.21-.134.373-.322.49-.562a1.83 1.83 0 0 0 .176-.813 1.83 1.83 0 0 0-.176-.814 1.301 1.301 0 0 0-1.208-.763c-.262 0-.497.067-.704.201-.207.135-.369.32-.486.558a1.803 1.803 0 0 0-.176.81c0 .307.059.58.176.821.117.24.28.428.486.562.207.134.442.201.705.201.268 0 .507-.067.717-.201Zm2.041.587v-3.925h.57v.613c.13-.24.293-.425.491-.554.199-.128.426-.193.684-.193.285 0 .533.077.746.23a1.2 1.2 0 0 1 .444.66c.123-.28.291-.498.503-.655a1.21 1.21 0 0 1 .738-.235c.364 0 .666.127.906.382.24.254.36.605.36 1.052v2.625h-.57v-2.373c0-.414-.078-.712-.234-.893a.77.77 0 0 0-.613-.273.832.832 0 0 0-.717.357c-.17.237-.27.56-.297.968v2.214h-.57v-2.373c0-.414-.079-.712-.235-.893a.77.77 0 0 0-.612-.273.837.837 0 0 0-.768.428c-.17.285-.255.668-.255 1.149v1.962h-.57Zm6.466 1.677v-5.602h.57v.579a1.75 1.75 0 0 1 .595-.524c.235-.126.492-.189.772-.189.374 0 .71.09 1.006.269.296.179.528.427.696.746.168.319.251.682.251 1.09 0 .403-.082.762-.247 1.078a1.855 1.855 0 0 1-.688.742 1.887 1.887 0 0 1-1.002.268 1.65 1.65 0 0 1-1.383-.721v2.264h-.57Zm2.658-2.264c.207-.134.369-.32.486-.558.117-.237.176-.507.176-.809 0-.307-.059-.581-.176-.822a1.367 1.367 0 0 0-.486-.562 1.266 1.266 0 0 0-.705-.2 1.301 1.301 0 0 0-1.207.762 1.83 1.83 0 0 0-.176.814c0 .301.058.573.176.813a1.301 1.301 0 0 0 1.207.763c.263 0 .498-.067.705-.201Zm2.742.453a1.869 1.869 0 0 1-.696-.747 2.305 2.305 0 0 1-.252-1.09c0-.402.083-.761.248-1.077.164-.316.394-.564.687-.742a1.887 1.887 0 0 1 1.002-.269 1.65 1.65 0 0 1 1.384.721v-.587h.57v3.925h-.57v-.579a1.75 1.75 0 0 1-.596.524 1.608 1.608 0 0 1-.771.189c-.375 0-.71-.09-1.006-.268Zm1.706-.453c.21-.134.373-.322.49-.562a1.83 1.83 0 0 0 .177-.813 1.83 1.83 0 0 0-.176-.814 1.301 1.301 0 0 0-1.207-.763c-.264 0-.498.067-.705.201-.207.135-.37.32-.487.558a1.803 1.803 0 0 0-.176.81c0 .307.06.58.176.821.118.24.28.428.487.562.207.134.441.201.704.201.269 0 .508-.067.717-.201Zm2.294.587v-3.925h.57v.655c.134-.252.311-.446.532-.583.221-.137.477-.206.767-.206.274 0 .527.056.76.168.231.112.416.277.553.495.137.218.205.475.205.771v2.625h-.57v-2.373c0-.777-.347-1.166-1.04-1.166-.402 0-.704.143-.905.428-.202.285-.302.668-.302 1.149v1.962h-.57Zm5.048 1.677.62-1.602-1.61-4h.595l1.3 3.254 1.25-3.254h.536l-2.121 5.602h-.57Z" fill="#a4a4a4" fill-rule="evenodd" data-name="LeadingPaperCompany"/><g data-name="icon"><path d="M369.032 1003.056v27.205c-2.153 1.325-4.716 2.418-7.547 3.134-2.339.593-4.636.873-6.784.873-2.07 0-4.002-.26-5.701-.753v-27.205h.003c.633.184 1.298.335 1.99.453.641.109 1.306.189 1.99.238a23.1 23.1 0 0 0 1.718.063c2.149 0 4.445-.281 6.784-.873 2.831-.718 5.394-1.809 7.547-3.135Zm-3.981 6.245c-.168.057-.337.113-.507.168h.507v-.168Z" fill="#a4a4a4" fill-rule="evenodd" data-name="Combined-Shape"/><path d="M376.486 997v30.047c-2.403 1.465-5.264 2.67-8.425 3.462-2.61.655-5.175.964-7.572.964-2.311 0-4.467-.287-6.364-.831v-30.047h.004c.706.203 1.448.37 2.221.5.716.12 1.458.208 2.222.263.625.046 1.265.069 1.917.069 2.398 0 4.962-.31 7.572-.964 3.161-.793 6.022-1.998 8.425-3.463Z" fill="#a4a4a4" fill-rule="evenodd" data-name="Combined-Shape"/></g></g></g></g></g></g></svg>