<svg xmlns="http://www.w3.org/2000/svg" width="224" height="88" viewBox="848 972 224 88"><g data-name="Logo"><g data-name="Rectangle 99"><path d="M848 972h224v88H848v-88z" fill="#fff" fill-rule="evenodd"/><path d="M0 0h224v88h0H0h0V0h0z" stroke-linejoin="round" stroke-linecap="round" stroke="rgba(255,255,255,0.5 )" fill="transparent" transform="matrix(.99554 0 0 .98864 848.5 972.5)"/></g><g data-name="6"><g data-name="Page-1"><g data-name="5"><g data-name="6"><path d="M931.07 1020.494v-20.085h5.631l3.592 11.233.314 1.083.684 2.695.898-3.222 3.692-11.789h5.603v20.085h-3.735v-12.173c0-.276.002-.552.007-.827.005-.276.05-1.459.135-3.55a169.1 169.1 0 0 1-1.242 4.514l-.078.264c-.064.21-.123.4-.176.568l-3.621 11.204h-2.994l-3.62-11.204-1.526-5.346c.114 2.205.171 3.664.171 4.377v12.173h-3.735Zm24.451-.933c-.836-.813-1.254-1.956-1.254-3.429 0-1.596.52-2.813 1.56-3.649 1.041-.836 2.55-1.264 4.526-1.283l3.322-.057v-.784c0-1.007-.176-1.756-.528-2.245-.351-.49-.926-.734-1.724-.734-.742 0-1.286.168-1.633.506-.346.337-.563.895-.648 1.675l-4.177-.2c.257-1.501.943-2.64 2.06-3.414s2.64-1.162 4.569-1.162c1.948 0 3.45.48 4.504 1.44 1.055.96 1.583 2.324 1.583 4.091v5.617c0 .865.097 1.46.292 1.789.195.328.52.492.976.492.304 0 .599-.029.884-.086v2.167c-.238.057-.451.11-.641.157a6.05 6.05 0 0 1-.57.114 8.573 8.573 0 0 1-1.354.1c-1.008 0-1.752-.248-2.232-.742-.48-.494-.767-1.221-.862-2.18h-.086c-1.121 2.023-2.813 3.035-5.075 3.035-1.492 0-2.656-.406-3.492-1.218Zm6.493-2.089a3.494 3.494 0 0 0 1.219-1.418 4.315 4.315 0 0 0 .442-1.917v-.784l-2.053.028c-.931.038-1.592.14-1.981.307-.39.166-.687.42-.891.762-.205.342-.307.798-.307 1.369 0 .731.169 1.276.506 1.632.338.356.787.534 1.347.534.628 0 1.2-.17 1.718-.513Zm9.647 3.022v-11.803a51.957 51.957 0 0 0-.114-3.62h3.82c.029.17.067.69.114 1.56.048.87.072 1.447.072 1.732h.057c.39-1.083.736-1.846 1.04-2.288.304-.442.665-.77 1.084-.983.418-.214.94-.321 1.568-.321.513 0 .926.071 1.24.214v3.35c-.646-.143-1.217-.214-1.71-.214-.999 0-1.776.404-2.331 1.212-.556.807-.834 2.005-.834 3.592v7.57h-4.006Zm12.562-.705c-.637-.642-.955-1.613-.955-2.915v-9.095h-1.953v-2.709h2.152l1.255-3.62h2.509v3.62h2.922v2.709h-2.922v8.011c0 .75.142 1.305.427 1.66.285.357.727.535 1.326.535.314 0 .76-.066 1.34-.2v2.481c-.988.323-2.114.485-3.378.485-1.179 0-2.086-.32-2.723-.962Zm8.47-17.498v-2.951h4.006v2.95h-4.005Zm0 18.203v-15.424h4.006v15.424h-4.005Zm8.087 0v-11.974a46.864 46.864 0 0 0-.115-3.45h3.82c.03.18.067.663.115 1.447.047.784.071 1.324.071 1.618h.057c.542-1.178 1.221-2.034 2.039-2.566.817-.532 1.791-.798 2.922-.798 1.635 0 2.889.504 3.763 1.511.875 1.007 1.312 2.48 1.312 4.42v9.792h-3.992v-8.652c0-2.709-.917-4.063-2.75-4.063-.97 0-1.752.416-2.346 1.247-.594.832-.89 1.898-.89 3.2v8.268h-4.006Zm18.962-1.853c-1.368-1.425-2.053-3.383-2.053-5.873 0-2.48.685-4.43 2.053-5.852 1.368-1.42 3.283-2.13 5.745-2.13 2.518 0 4.44.686 5.766 2.06 1.326 1.372 1.989 3.347 1.989 5.922 0 2.5-.694 4.46-2.082 5.88-1.387 1.421-3.307 2.131-5.759 2.131-2.404 0-4.29-.712-5.659-2.138Zm9.309-5.873c0-1.834-.3-3.165-.899-3.991-.598-.827-1.468-1.24-2.608-1.24-2.433 0-3.65 1.743-3.65 5.231 0 1.72.297 3.03.891 3.927.594.898 1.452 1.347 2.573 1.347 2.462 0 3.693-1.758 3.693-5.274Z" fill="#a4a4a4" fill-rule="evenodd" data-name="Martino"/><path d="M968.896 1032.246c-.496-.55-.744-1.307-.744-2.27 0-.947.245-1.698.733-2.254.489-.556 1.12-.834 1.892-.834.499 0 .926.137 1.283.411.356.274.622.613.796 1.017l-.845.277c-.319-.573-.735-.86-1.249-.86-.488 0-.876.203-1.163.61-.286.406-.43.95-.43 1.633 0 .693.145 1.242.434 1.646.29.403.676.605 1.16.605.313 0 .591-.094.833-.284.242-.19.418-.421.527-.695l.883.276c-.075.18-.171.353-.288.52a3.052 3.052 0 0 1-.442.494 1.992 1.992 0 0 1-.654.388c-.26.098-.54.146-.845.146-.758 0-1.385-.275-1.88-.826Zm5.744.68a1.67 1.67 0 0 1-.576-.373 1.975 1.975 0 0 1-.367-.539 2.522 2.522 0 0 1-.202-.613 3.381 3.381 0 0 1-.056-.617c0-.643.17-1.186.509-1.63.339-.444.835-.666 1.488-.666.648 0 1.142.222 1.48.666.34.444.51.987.51 1.63 0 .2-.02.399-.057.598a2.63 2.63 0 0 1-.198.61 2.073 2.073 0 0 1-.36.546 1.615 1.615 0 0 1-.571.385c-.237.1-.505.15-.804.15a2.08 2.08 0 0 1-.796-.147Zm1.506-1.028c.205-.244.307-.615.307-1.114 0-.508-.102-.884-.307-1.125-.204-.242-.44-.363-.71-.363-.27 0-.507.12-.714.363-.207.241-.31.617-.31 1.125 0 .499.102.87.306 1.114.204.245.444.367.718.367.27 0 .506-.122.71-.367Zm2.14 1.04v-6.11h.941v6.11h-.942Zm3.002-.012a1.67 1.67 0 0 1-.576-.373 1.975 1.975 0 0 1-.367-.539 2.523 2.523 0 0 1-.202-.613 3.381 3.381 0 0 1-.056-.617c0-.643.17-1.186.509-1.63.339-.444.835-.666 1.488-.666.648 0 1.142.222 1.48.666.34.444.51.987.51 1.63 0 .2-.02.399-.057.598a2.63 2.63 0 0 1-.198.61 2.073 2.073 0 0 1-.36.546 1.615 1.615 0 0 1-.571.385c-.237.1-.505.15-.804.15a2.08 2.08 0 0 1-.796-.147Zm1.506-1.028c.205-.244.307-.615.307-1.114 0-.508-.102-.884-.307-1.125-.204-.242-.44-.363-.71-.363-.27 0-.507.12-.714.363-.207.241-.31.617-.31 1.125 0 .499.102.87.306 1.114.204.245.444.367.718.367.27 0 .506-.122.71-.367Zm2.057 1.04v-4.315h.912v.464c.095-.16.23-.3.408-.42.177-.119.387-.179.632-.179.229 0 .416.033.56.097v.86c-.189-.06-.376-.09-.56-.09-.324 0-.572.127-.744.378-.172.252-.258.587-.258 1.006v2.199h-.95Zm3.436-.142a1.905 1.905 0 0 1-.752-.756l.681-.396c.3.439.688.658 1.167.658.234 0 .42-.046.557-.138a.421.421 0 0 0 .037-.7 1.224 1.224 0 0 0-.355-.213 12.073 12.073 0 0 0-.658-.22c-.18-.06-.33-.119-.453-.176a2.426 2.426 0 0 1-.385-.232.947.947 0 0 1-.306-.366 1.182 1.182 0 0 1-.105-.512c0-.38.16-.683.479-.913.319-.23.715-.344 1.189-.344.354 0 .688.094 1.002.28.314.188.548.426.703.715l-.629.381c-.294-.404-.65-.605-1.069-.605-.23 0-.405.046-.527.138a.44.44 0 0 0-.022.695c.107.098.218.169.332.213a10.727 10.727 0 0 0 .606.21c.887.284 1.331.713 1.331 1.286 0 .354-.148.654-.445.901-.297.247-.717.37-1.26.37-.419 0-.791-.092-1.118-.276Zm6.386.13a1.67 1.67 0 0 1-.576-.373 1.975 1.975 0 0 1-.366-.539 2.523 2.523 0 0 1-.202-.613 3.381 3.381 0 0 1-.056-.617c0-.643.17-1.186.509-1.63.339-.444.835-.666 1.488-.666.648 0 1.141.222 1.48.666.34.444.509.987.509 1.63 0 .2-.019.399-.056.598a2.63 2.63 0 0 1-.198.61 2.073 2.073 0 0 1-.36.546 1.615 1.615 0 0 1-.571.385c-.237.1-.505.15-.804.15a2.08 2.08 0 0 1-.797-.147Zm1.507-1.028c.205-.244.307-.615.307-1.114 0-.508-.102-.884-.307-1.125-.204-.242-.441-.363-.71-.363-.27 0-.508.12-.714.363-.207.241-.31.617-.31 1.125 0 .499.101.87.306 1.114.204.245.444.367.718.367.269 0 .506-.122.71-.367Zm2.378 1.04v-3.508h-.658v-.807h.658v-.464c0-.443.111-.776.333-.998.222-.222.535-.333.938-.333h.68v.8h-.545c-.155 0-.268.048-.34.142-.073.095-.109.247-.109.457v.396h.898v.807h-.898v3.508h-.957Zm4.322 1.765v-.793h.135c.224 0 .408-.049.55-.146.142-.097.255-.265.34-.505l.142-.426-1.615-4.21h1.04l.74 2.22c.124.41.219.741.284.995h.03l.276-.994.68-2.221h1.033l-1.787 4.883c-.16.439-.366.748-.617.927-.252.18-.565.27-.939.27h-.292Zm5.157-1.777a1.67 1.67 0 0 1-.576-.373 1.975 1.975 0 0 1-.367-.539 2.522 2.522 0 0 1-.202-.613 3.38 3.38 0 0 1-.056-.617c0-.643.17-1.186.509-1.63.339-.444.835-.666 1.488-.666.648 0 1.142.222 1.48.666.34.444.51.987.51 1.63 0 .2-.02.399-.057.598a2.63 2.63 0 0 1-.198.61 2.073 2.073 0 0 1-.359.546 1.615 1.615 0 0 1-.572.385c-.237.1-.505.15-.804.15a2.08 2.08 0 0 1-.796-.147Zm1.506-1.028c.205-.244.307-.615.307-1.114 0-.508-.102-.884-.307-1.125-.204-.242-.44-.363-.71-.363-.27 0-.507.12-.714.363-.207.241-.31.617-.31 1.125 0 .499.102.87.306 1.114.205.245.444.367.718.367.27 0 .506-.122.71-.367Zm2.958 1.096a1.535 1.535 0 0 1-.46-.254c-.15-.118-.27-.293-.359-.528a2.342 2.342 0 0 1-.134-.837v-2.752h.95v2.632c0 .673.236 1.01.71 1.01.284 0 .506-.121.665-.363.16-.242.24-.53.24-.864v-2.415h.942v4.315h-.913v-.501h-.007c-.07.154-.203.299-.4.433-.197.135-.443.202-.737.202-.174 0-.34-.026-.497-.078Zm3.586-.056v-4.315h.912v.464c.095-.16.23-.3.408-.42.177-.119.387-.179.631-.179.23 0 .417.033.561.097v.86c-.19-.06-.376-.09-.56-.09-.325 0-.573.127-.745.378-.172.252-.258.587-.258 1.006v2.199h-.95Zm4.958 0v-6.11h.942v6.11h-.942Zm2.101-4.958v-1.04h1.017v1.04h-1.017Zm.045 4.958v-4.315h.935v4.315h-.935Zm2.378 0v-3.508h-.658v-.807h.658v-.464c0-.443.11-.776.333-.998.222-.222.534-.333.938-.333h.68v.8h-.545c-.155 0-.268.048-.34.142-.073.095-.109.247-.109.457v.396h.897v.807h-.897v3.508h-.957Zm2.793-.494c-.381-.419-.572-.98-.572-1.682 0-.693.19-1.246.572-1.657.381-.411.861-.617 1.44-.617a1.8 1.8 0 0 1 1.405.62c.37.415.554.953.554 1.616a3.2 3.2 0 0 1-.023.382h-2.99c0 .329.098.612.294.848.197.237.468.356.812.356.24 0 .45-.059.632-.176.182-.117.32-.268.415-.453l.792.27c-.14.319-.366.585-.68.8-.314.214-.705.321-1.174.321-.603 0-1.096-.21-1.477-.628Zm2.172-2.845c-.174-.232-.418-.348-.733-.348a.908.908 0 0 0-.751.355 1.341 1.341 0 0 0-.288.834h2.034c0-.329-.087-.61-.262-.841Z" fill="#a4a4a4" fill-rule="evenodd" data-name="Colorsofyourlife"/><g data-name="floors"><path d="M895.615 1002.83v29.781a.81.81 0 0 1-.386.694.765.765 0 0 1-.777.01l-7.049-4.025a.809.809 0 0 1-.403-.703v-29.783a.81.81 0 0 1 .386-.693.765.765 0 0 1 .777-.01l7.048 4.025a.809.809 0 0 1 .404.703ZM907.101 1002.83v29.782a.81.81 0 0 1-.386.694.765.765 0 0 1-.777.01l-7.048-4.025a.809.809 0 0 1-.404-.703v-29.783a.81.81 0 0 1 .386-.693.765.765 0 0 1 .777-.01l7.049 4.025a.809.809 0 0 1 .403.703ZM918.585 1002.83v29.782a.81.81 0 0 1-.385.694.765.765 0 0 1-.778.01l-7.048-4.025a.809.809 0 0 1-.403-.703v-29.783a.81.81 0 0 1 .386-.693.765.765 0 0 1 .777-.01l7.048 4.025a.809.809 0 0 1 .403.703Z" fill="#a4a4a4" fill-rule="evenodd" data-name="Path"/></g></g></g></g></g></g></svg>