<svg xmlns="http://www.w3.org/2000/svg" width="224" height="88" viewBox="574 972 224 88"><g data-name="Logo"><g data-name="Rectangle 98"><path d="M574 972h224v88H574v-88z" fill="#fff" fill-rule="evenodd"/><path d="M0 0h224v88h0H0h0V0h0z" stroke-linejoin="round" stroke-linecap="round" stroke="rgba(255,255,255,0.5 )" fill="transparent" transform="matrix(.99554 0 0 .98864 574.5 972.5)"/></g><g data-name="Logo 5"><g data-name="🖥-Landing-Pages"><g data-name="Logos"><g data-name="Logos-raw"><g data-name="Logo-5"><path d="M627 1028.888c1.015-.066 1.746-.211 2.195-.435.79-.409 1.186-1.153 1.186-2.234v-19.968c0-1.042-.376-1.767-1.127-2.175-.435-.237-1.186-.402-2.254-.494v-1.028h12.376c4.996 0 8.805 1.33 11.428 3.993 2.385 2.425 3.578 5.68 3.578 9.767 0 3.664-1.2 6.768-3.598 9.312-2.702 2.86-6.366 4.29-10.992 4.29H627v-1.028Zm9.925-2.709c.04.83.19 1.43.455 1.8.276.368.856.553 1.74.553 2.398 0 4.369-.844 5.91-2.53 1.543-1.7 2.314-4.956 2.314-9.767 0-2.86-.415-5.319-1.246-7.375-1.344-3.308-3.611-4.962-6.8-4.962-1.055 0-1.74.224-2.057.672-.21.29-.316.85-.316 1.68v19.93ZM656.596 1020.644c0-2.821.864-5.174 2.59-7.058 1.74-1.885 3.922-2.828 6.544-2.828 2.676 0 4.864.963 6.564 2.887 1.714 1.924 2.57 4.257 2.57 6.999 0 2.702-.843 5.028-2.53 6.979-1.687 1.937-3.888 2.906-6.604 2.906-2.636 0-4.817-.943-6.544-2.827-1.726-1.898-2.59-4.251-2.59-7.058Zm5.951 0c0 2.833.145 4.817.435 5.95.462 1.754 1.378 2.63 2.748 2.63 1.305 0 2.162-.672 2.57-2.017.41-1.344.613-3.532.613-6.563 0-3.019-.217-5.2-.652-6.544-.422-1.358-1.259-2.037-2.51-2.037-1.372 0-2.288.877-2.749 2.63-.303 1.173-.455 3.156-.455 5.95ZM676.683 1028.947c.778-.092 1.318-.277 1.621-.553.304-.277.468-.811.495-1.602l.04-1.186v-11.012c0-.844-.146-1.417-.436-1.72-.29-.303-.863-.508-1.72-.613v-.989h7.691v3.183c.857-1.12 1.707-2.01 2.55-2.669.844-.659 1.82-.988 2.926-.988.83 0 1.576.27 2.235.81.672.528 1.008 1.305 1.008 2.333 0 .791-.237 1.444-.712 1.958-.461.514-1.068.77-1.819.77-.857 0-1.601-.401-2.234-1.205-.62-.804-1.054-1.206-1.305-1.206-.54 0-1.087.336-1.64 1.008-.541.659-.811 1.608-.811 2.847v7.651c0 1.345.19 2.188.573 2.53.395.33 1.173.548 2.333.653v.969h-10.795v-.969ZM694.497 1028.947c.83-.066 1.423-.25 1.779-.553.369-.304.553-.936.553-1.898v-13.167h-2.332v-1.78h2.332v-1.502c0-1.885.297-3.434.89-4.646 1.12-2.267 3.19-3.401 6.208-3.401 1.608 0 2.966.369 4.073 1.107 1.12.725 1.68 1.687 1.68 2.887 0 .75-.237 1.357-.711 1.819-.462.46-1.081.691-1.859.691-.646 0-1.2-.21-1.66-.632-.462-.422-.693-.93-.693-1.522 0-.449.145-.917.435-1.404.303-.501.455-.804.455-.91 0-.33-.119-.54-.356-.632a2.11 2.11 0 0 0-.77-.139c-.66 0-1.167.191-1.523.574-.356.382-.534 1.206-.534 2.471v5.24h3.52v1.778h-3.52v12.436c0 1.397.198 2.254.593 2.57.409.317 1.305.52 2.689.613v.969h-11.25v-.969Z" fill="#a4a4a4" fill-rule="evenodd" data-name="Dorfus"/><path d="M715.71 1011.272v13.74c0 .818.1 1.418.297 1.8.343.672 1.021 1.008 2.036 1.008.646 0 1.279-.204 1.898-.613.356-.224.804-.6 1.345-1.127v-11.486c0-.844-.172-1.43-.514-1.76-.33-.342-1.002-.534-2.017-.573v-.989h8.066v14.571c0 .844.158 1.43.475 1.76.316.316.936.514 1.858.593v.93c-2.504.236-4.086.414-4.745.533-.646.105-1.687.382-3.123.83v-2.669c-.963.83-1.76 1.417-2.393 1.76-1.107.606-2.26.91-3.46.91-1.304 0-2.524-.416-3.657-1.246-1.12-.83-1.68-2.307-1.68-4.429v-10.221c0-.857-.139-1.417-.416-1.68-.276-.264-.81-.482-1.601-.653v-.989h7.631ZM730.993 1023.787h1.127c.395 1.938 1.133 3.308 2.214 4.112 1.08.791 2.188 1.187 3.322 1.187 1.04 0 1.805-.231 2.293-.692.488-.475.731-1.094.731-1.859 0-.725-.263-1.344-.79-1.858-.29-.277-.758-.574-1.404-.89l-3.005-1.463c-1.582-.778-2.715-1.621-3.4-2.53-.7-.91-1.049-1.984-1.049-3.223 0-1.569.547-2.92 1.641-4.053 1.094-1.147 2.623-1.72 4.587-1.72.857 0 1.766.145 2.728.435.963.277 1.562.415 1.8.415.33 0 .56-.066.692-.198.145-.145.263-.342.355-.593h.89v5.852h-1.028c-.382-1.37-1.008-2.471-1.878-3.301-.87-.83-1.885-1.246-3.045-1.246-.896 0-1.568.25-2.016.751-.435.501-.653 1.042-.653 1.621 0 .475.198.95.593 1.424.383.488 1.107.988 2.175 1.503l2.214 1.067c1.371.66 2.373 1.298 3.005 1.918 1.055 1.054 1.582 2.353 1.582 3.895 0 1.502-.547 2.906-1.64 4.21-1.082 1.292-2.71 1.938-4.884 1.938-.54 0-1.088-.059-1.641-.178-.54-.105-1.213-.296-2.017-.573l-.692-.237a4.556 4.556 0 0 0-.474-.158.938.938 0 0 0-.218-.02.788.788 0 0 0-.593.277c-.158.171-.342.468-.553.89h-.97v-6.703Z" fill="#a4a4a4" fill-rule="evenodd" data-name="Dorfus"/></g></g></g></g></g></g></svg>