<svg xmlns="http://www.w3.org/2000/svg" width="224" height="88" viewBox="1396 972 224 88"><g data-name="Logo"><g data-name="Rectangle 101"><path d="M1396 972h224v88h-224v-88z" fill="#fff" fill-rule="evenodd"/><path d="M0 0h224v88h0H0h0V0h0z" stroke-linejoin="round" stroke-linecap="round" stroke="rgba(255,255,255,0.5 )" fill="transparent" transform="matrix(.99554 0 0 .98864 1396.5 972.5)"/></g><g data-name="10"><g data-name="Page-1"><g data-name="1"><g data-name="10"><g data-name="Group-5"><path d="M1448.963 997.121v7.365L1428 1021.811v-7.365l20.963-17.325Z" fill="#a4a4a4" fill-rule="evenodd" data-name="Fill-1"/><path d="M1448.963 1011.563v7.365L1428 1036.253v-7.365l20.963-17.325Z" fill="#a4a4a4" fill-rule="evenodd" data-name="Fill-2"/><path d="M1458.282 997.121v7.365l-20.964 17.325v-7.365l20.964-17.325Z" fill="#a4a4a4" fill-rule="evenodd" data-name="Fill-3"/><path d="M1458.282 1011.563v7.365l-20.964 17.325v-7.365l20.964-17.325Z" fill="#a4a4a4" fill-rule="evenodd" data-name="Fill-4"/></g><path d="M1473.805 1018.826c-2.275-2.274-3.412-5.237-3.412-8.888 0-3.617 1.163-6.514 3.488-8.692 2.326-2.178 5.411-3.267 9.255-3.267 1.16 0 2.358.097 3.592.29 1.234.193 2.499.483 3.795.87v5.937h-2.559l-.665-3.702-.529-.631a6.84 6.84 0 0 0-1.399-.427 8.011 8.011 0 0 0-1.501-.136c-2.616 0-4.672.867-6.167 2.601-1.496 1.735-2.244 4.12-2.244 7.157 0 3.116.765 5.553 2.295 7.31 1.53 1.757 3.654 2.636 6.372 2.636.182 0 .438-.008.768-.026.33-.017.71-.042 1.143-.076v-7.131l-.546-.478-2.593-.17v-1.724h10.201v1.723l-2.03.17-.546.479v8.154a27.358 27.358 0 0 1-4.009 1.075c-1.296.239-2.57.358-3.821.358-3.651 0-6.614-1.137-8.888-3.412Zm22.54.845c-1.61-1.61-2.414-3.728-2.414-6.355 0-2.696.824-4.86 2.474-6.491 1.649-1.632 3.838-2.449 6.568-2.449 2.684 0 4.816.81 6.397 2.432 1.581 1.62 2.372 3.812 2.372 6.576 0 2.616-.825 4.72-2.474 6.312-1.65 1.593-3.839 2.389-6.568 2.389-2.627 0-4.746-.805-6.355-2.414Zm9.51-1.237c.717-1.206 1.076-2.923 1.076-5.152 0-2.218-.361-3.947-1.084-5.186-.722-1.24-1.726-1.86-3.01-1.86-1.275 0-2.27.608-2.986 1.825-.717 1.217-1.075 2.923-1.075 5.118 0 2.23.355 3.964 1.066 5.204.711 1.24 1.698 1.86 2.96 1.86 1.32 0 2.337-.603 3.054-1.809Zm12.484 3.378-3.872-.068v-22.741h-2.525v-1.365l5.186-1.638h1.672v9.98c.955-.534 1.848-.93 2.678-1.186a8.102 8.102 0 0 1 2.389-.383c2.013 0 3.662.739 4.947 2.217 1.285 1.479 1.928 3.384 1.928 5.716 0 2.024-.47 3.773-1.407 5.246-.939 1.472-2.306 2.613-4.103 3.42-.637.273-1.442.475-2.414.606-.973.13-2.147.196-3.523.196h-.956Zm6.236-3.489c.995-1.086 1.493-2.778 1.493-5.075 0-1.968-.438-3.478-1.314-4.53-.876-1.052-2.127-1.578-3.753-1.578-.296 0-.623.023-.981.068a17.6 17.6 0 0 0-1.22.205v12.505c.125.012.267.02.426.026.16.005.387.008.683.008 2.115 0 3.67-.543 4.666-1.629Zm9.77 1.348c-1.609-1.61-2.413-3.728-2.413-6.355 0-2.696.824-4.86 2.473-6.491 1.65-1.632 3.839-2.449 6.568-2.449 2.685 0 4.817.81 6.398 2.432 1.58 1.62 2.371 3.812 2.371 6.576 0 2.616-.824 4.72-2.473 6.312-1.65 1.593-3.839 2.389-6.569 2.389-2.627 0-4.745-.805-6.354-2.414Zm9.512-1.237c.716-1.206 1.074-2.923 1.074-5.152 0-2.218-.36-3.947-1.083-5.186-.722-1.24-1.726-1.86-3.011-1.86-1.274 0-2.269.608-2.986 1.825-.716 1.217-1.074 2.923-1.074 5.118 0 2.23.355 3.964 1.066 5.204.71 1.24 1.697 1.86 2.96 1.86 1.32 0 2.337-.603 3.054-1.809Zm6.853 3.378v-1.57l1.792-.136.494-.529v-12.061h-2.388v-1.4l5.033-1.637h1.689v2.064c1.33-.74 2.479-1.28 3.446-1.62.966-.342 1.808-.512 2.525-.512 1.592 0 2.78.477 3.565 1.433.785.955 1.177 2.41 1.177 4.367v9.366l.46.529 1.843.136v1.57h-8.547v-1.57l1.502-.136.477-.529v-8.36c0-1.296-.25-2.249-.75-2.857-.5-.608-1.297-.913-2.389-.913-.42 0-.907.051-1.458.154a20.76 20.76 0 0 0-1.852.443v11.533l.478.529 1.536.136v1.57h-8.633Zm21.577-.964c-.853-.847-1.28-1.936-1.28-3.267 0-1.638.626-2.9 1.877-3.787 1.25-.887 4.168-1.849 8.752-2.884v-1.04c0-1.263-.268-2.184-.802-2.764-.535-.58-1.376-.87-2.525-.87-.25 0-.512.017-.785.051-.273.034-.569.086-.887.154v3.275h-3.224c-.558 0-.964-.102-1.22-.307-.256-.205-.384-.529-.384-.972 0-1.092.734-2.042 2.2-2.85 1.468-.807 3.27-1.21 5.409-1.21 2.4 0 4.088.46 5.067 1.381.978.922 1.467 2.525 1.467 4.811v9.042l.46.495 1.86.17v1.536h-6.227l-.46-1.996c-1.183.807-2.258 1.393-3.225 1.757-.967.364-1.894.546-2.78.546-1.343 0-2.44-.424-3.293-1.271Zm7.43-1.672a11.85 11.85 0 0 0 1.867-.793v-5.698c-2.297.512-3.867 1.069-4.708 1.672-.842.602-1.263 1.421-1.263 2.456 0 .808.233 1.448.7 1.92.466.472 1.097.708 1.893.708.444 0 .947-.089 1.51-.265Z" fill="#a4a4a4" fill-rule="evenodd" data-name="Gobona"/><path d="M1471.988 1034.39v-.401l.664-.048.158-.138v-2.074l-1.95-3.415-.596-.096v-.391h2.273v.391l-.558.058-.1.11 1.5 2.689 1.642-2.613-.09-.138-.597-.106v-.391h1.996v.391l-.597.125-2.035 3.257v2.203l.158.138.664.048v.401h-2.532Zm3.875-.597c-.425-.455-.637-1.043-.637-1.763s.21-1.307.632-1.762c.422-.456.968-.683 1.637-.683.665 0 1.211.228 1.638.685.427.457.64 1.044.64 1.76 0 .717-.214 1.304-.642 1.76-.429.458-.974.686-1.636.686-.663 0-1.207-.228-1.632-.683Zm2.62-.287c.249-.366.373-.858.373-1.476 0-.611-.125-1.102-.375-1.47-.25-.37-.579-.555-.986-.555-.408 0-.735.184-.982.552-.247.367-.37.859-.37 1.473 0 .615.124 1.106.372 1.474.249.368.575.552.98.552.41 0 .74-.183.988-.55Zm2.614.595c-.224-.256-.336-.626-.336-1.11v-2.738h-.698v-.305l1.137-.363h.373v3.238c0 .357.076.619.229.786.153.167.392.25.716.25.182 0 .366-.023.552-.07.186-.049.381-.122.585-.22v-3.316h-.697v-.305l1.137-.363h.372v4.246l.177.158.459.048v.353h-1.448v-.55c-.305.22-.588.383-.848.488-.26.105-.505.158-.738.158-.423 0-.747-.129-.972-.385Zm4.243.29v-.354l.52-.048.168-.158v-3.54h-.688v-.305l1.137-.349h.373v.917a11.953 11.953 0 0 1 1.046-.946.42.42 0 0 1 .093-.019c.033-.003.084-.004.15-.004a1.372 1.372 0 0 1 .588.129v.84h-.31a.647.647 0 0 0-.223-.174.647.647 0 0 0-.279-.06.897.897 0 0 0-.494.175 2.91 2.91 0 0 0-.571.542v2.794l.167.158.683.048v.353h-2.36Zm7.153 0v-.402l.655-.048.167-.138v-5.527h-1.495l-.139.148-.138.907h-.535v-1.504h5.527v1.504h-.54l-.134-.907-.138-.148h-1.496v5.527l.163.138.659.048v.401h-2.556Zm3.453 0v-.354l.52-.048.168-.158v-3.54h-.688v-.305l1.137-.349h.372v.917a11.953 11.953 0 0 1 1.046-.946.42.42 0 0 1 .093-.019c.034-.003.084-.004.151-.004a1.372 1.372 0 0 1 .588.129v.84h-.311a.647.647 0 0 0-.222-.174.647.647 0 0 0-.28-.06.897.897 0 0 0-.494.175 2.91 2.91 0 0 0-.57.542v2.794l.166.158.684.048v.353h-2.36Zm4.405-.29c-.224-.256-.337-.626-.337-1.11v-2.738h-.697v-.305l1.137-.363h.372v3.238c0 .357.077.619.23.786.153.167.391.25.716.25.182 0 .366-.023.552-.07.186-.049.381-.122.585-.22v-3.316h-.697v-.305l1.137-.363h.372v4.246l.177.158.458.048v.353h-1.447v-.55c-.306.22-.588.383-.848.488-.26.105-.505.158-.738.158-.423 0-.747-.129-.972-.385Zm4.957.325a2.876 2.876 0 0 1-.595-.155V1033h.469l.119.831c.137.08.275.139.413.177.139.038.278.057.418.057.277 0 .5-.072.667-.217a.719.719 0 0 0 .25-.57.71.71 0 0 0-.172-.49c-.114-.13-.388-.293-.821-.49-.49-.22-.824-.427-1.001-.621a1.032 1.032 0 0 1-.265-.721c0-.437.151-.774.454-1.013.302-.239.729-.358 1.28-.358.22 0 .424.018.614.055.19.036.367.09.532.16v1.108h-.482l-.077-.693a2 2 0 0 0-.372-.158 1.235 1.235 0 0 0-.354-.052c-.254 0-.453.062-.597.186-.143.124-.215.298-.215.52 0 .182.058.337.172.464.115.128.335.27.66.425.05.026.128.063.233.11.37.17.637.322.803.459a.927.927 0 0 1 .277.36c.064.145.096.305.096.48 0 .46-.162.818-.485 1.078-.323.26-.772.389-1.345.389-.236 0-.46-.017-.676-.05Zm3.667-.22c-.15-.142-.226-.4-.226-.776v-3.158h-.617v-.305l.645-.282.42-.912h.364v1.04h1.49v.46h-1.49v2.579c0 .423.059.708.176.853.118.144.33.217.636.217a2.923 2.923 0 0 0 .678-.081v.363c-.223.07-.443.123-.66.16a3.753 3.753 0 0 1-.625.055c-.376 0-.64-.071-.79-.213Zm2.822-.396c-.403-.445-.604-1.023-.604-1.737 0-.732.211-1.33.633-1.793.422-.464.964-.695 1.626-.695.542 0 .971.172 1.288.518.317.345.475.816.475 1.411 0 .08 0 .14-.002.182a.947.947 0 0 1-.012.12h-3.167v.11c0 .614.148 1.1.444 1.459.296.358.696.537 1.199.537.232 0 .474-.046.724-.139a4.03 4.03 0 0 0 .814-.43v.54a3.62 3.62 0 0 1-.903.435 3.104 3.104 0 0 1-.94.148c-.647 0-1.172-.222-1.575-.666Zm2.544-2.558c0-.395-.087-.698-.26-.908-.174-.21-.426-.315-.758-.315-.324 0-.605.13-.843.39-.237.259-.37.587-.398.986h2.259v-.153Zm1.854 2.582c-.355-.429-.532-.977-.532-1.646 0-.777.233-1.407.7-1.89.466-.482 1.074-.723 1.822-.723.13 0 .27.01.416.029.146.019.297.046.453.08v-1.838h-.75v-.306l1.195-.349h.367v6.64l.168.158.468.048v.353h-1.448v-.506a2.935 2.935 0 0 1-.745.449 2.05 2.05 0 0 1-.76.143c-.547 0-.998-.214-1.354-.642Zm2.317-.058c.177-.055.358-.14.542-.255v-3.358a5.583 5.583 0 0 0-.48-.117 2.047 2.047 0 0 0-.38-.041c-.5 0-.903.185-1.21.554-.308.37-.461.857-.461 1.462 0 .563.133 1.01.399 1.342.265.331.621.497 1.067.497.172 0 .346-.028.523-.084Zm7.266.633a2.998 2.998 0 0 1-.765-.291 3.236 3.236 0 0 1-1.24-1.254 3.538 3.538 0 0 1-.45-1.76c0-1.02.31-1.84.933-2.463.623-.622 1.444-.934 2.463-.934.293 0 .6.028.924.084.323.056.66.14 1.01.25v1.505h-.544l-.148-.888-.13-.177a2.898 2.898 0 0 0-.549-.19 2.4 2.4 0 0 0-.544-.063c-.74 0-1.325.252-1.758.755-.433.503-.65 1.188-.65 2.054 0 .92.226 1.642.679 2.166.452.524 1.078.786 1.877.786a2.921 2.921 0 0 0 .85-.13l.153-.152.239-1.09h.525v1.549c-.321.111-.65.196-.984.255a5.691 5.691 0 0 1-.989.088c-.321 0-.622-.033-.902-.1Zm4.266-.308c-.224-.256-.336-.626-.336-1.11v-2.738h-.698v-.305l1.137-.363h.373v3.238c0 .357.076.619.229.786.153.167.392.25.716.25.182 0 .366-.023.552-.07.187-.049.382-.122.585-.22v-3.316h-.697v-.305l1.137-.363h.372v4.246l.177.158.459.048v.353h-1.448v-.55c-.305.22-.588.383-.848.488-.26.105-.505.158-.738.158-.423 0-.747-.129-.972-.385Zm4.243.29v-.354l.521-.048.167-.158v-3.54h-.688v-.305l1.137-.349h.373v.917a11.954 11.954 0 0 1 1.046-.946.42.42 0 0 1 .093-.019c.034-.003.084-.004.15-.004a1.372 1.372 0 0 1 .588.129v.84h-.31a.647.647 0 0 0-.223-.174.647.647 0 0 0-.279-.06.897.897 0 0 0-.494.175 2.91 2.91 0 0 0-.571.542v2.794l.167.158.683.048v.353h-2.36Zm3.41 0v-.354l.52-.048.168-.158v-3.54h-.688v-.305l1.137-.349h.372v.917a11.954 11.954 0 0 1 1.046-.946.42.42 0 0 1 .093-.019c.034-.003.084-.004.15-.004a1.372 1.372 0 0 1 .588.129v.84h-.31a.647.647 0 0 0-.222-.174.647.647 0 0 0-.28-.06.897.897 0 0 0-.494.175 2.91 2.91 0 0 0-.57.542v2.794l.166.158.683.048v.353h-2.36Zm4.224-5.962a.535.535 0 0 1-.165-.397c0-.16.055-.294.165-.404a.543.543 0 0 1 .398-.164c.16 0 .294.055.404.167.11.111.165.245.165.401a.535.535 0 0 1-.165.397.553.553 0 0 1-.404.162.547.547 0 0 1-.398-.162Zm-.762 5.961v-.353l.516-.048.167-.158v-3.54h-.683v-.305l1.122-.349h.382v4.194l.168.158.525.048v.353h-2.197Zm3.034-.58c-.403-.445-.604-1.023-.604-1.737 0-.732.21-1.33.633-1.793.422-.464.964-.695 1.626-.695.542 0 .97.172 1.288.518.316.345.475.816.475 1.411 0 .08-.001.14-.003.182a.946.946 0 0 1-.012.12h-3.167v.11c0 .614.149 1.1.445 1.459.296.358.696.537 1.199.537.232 0 .473-.046.723-.139a4.03 4.03 0 0 0 .815-.43v.54a3.62 3.62 0 0 1-.903.435 3.104 3.104 0 0 1-.941.148c-.646 0-1.171-.222-1.574-.666Zm2.544-2.558c0-.395-.087-.698-.26-.908-.174-.21-.427-.315-.758-.315-.325 0-.606.13-.843.39-.237.259-.37.587-.399.986h2.26v-.153Zm1.26 3.138v-.353l.52-.048.167-.158v-3.54h-.688v-.305l1.137-.349h.373v.917a11.954 11.954 0 0 1 1.046-.946.42.42 0 0 1 .093-.019c.034-.003.084-.004.15-.004a1.372 1.372 0 0 1 .588.129v.84h-.31a.647.647 0 0 0-.222-.174.647.647 0 0 0-.28-.06.897.897 0 0 0-.494.175 2.91 2.91 0 0 0-.571.542v2.794l.167.158.683.048v.353h-2.36Z" fill="#a4a4a4" fill-rule="evenodd" data-name="YourTrustedCurrier"/></g></g></g></g></g></svg>